<svg xmlns="http://www.w3.org/2000/svg" viewBox="0 0 79.56442 79.5644"><defs><style>.cz-w{fill:#fff}.cz-b{fill:#2aaae2}.cz-g{fill:#f9f9f9}</style></defs><g data-name="Layer 2"><g data-name="New Layer"><path class="cz-w" d="M39.85252,33.14549a.41227.41227,0,0,0-.4065.37231l-2.1612,6.0087c0,.2013,0,.26969.1348.26969l.4729.27171c.1348.06639.2696.06639.4045-.1349a32.80829,32.80829,0,0,1,4.2198-4.7611,2.86627,2.86627,0,0,1,1.6541-.57351h7.832c-5.1636,7.2584-10.3977,14.51481-15.5975,21.7411a1.199,1.199,0,0,0-.2033.64391c0,.2053.1691.30389.5071.30389h7.7314c3.105,0,8.4377.1348,10.3292.40651a6.3646,6.3646,0,0,0,.809.1006.53975.53975,0,0,0,.4729-.37231c.3381-.8773,2.0264-5.063,2.4993-5.8055.0664-.20329,0-.27169-.0684-.33809l-.5393-.2696a.3159.3159,0,0,0-.4045.0664c-.4729.6077-3.5779,4.252-4.7249,4.7249a7.57027,7.57027,0,0,1-2.1613.2032h-8.981c5.2663-7.32481,10.5325-14.6859,15.8672-22.0107a.48.48,0,0,0-.4065-.811c-.6077,0-1.7547.06639-2.9038.13679-1.2838,0-2.7689.06641-4.4573.06641-2.8353,0-7.5623.0343-9.1822-.171a6.5555,6.5555,0,0,0-.7426-.0664Z"/><path class="cz-w" d="M19.01762,34.3081a13.33972,13.33972,0,0,0,2.9017,8.7677c2.9662,3.7389,6.5763,4.5136,9.9952,4.5136a14.91255,14.91255,0,0,0,10.3796-4.58c.322-.3864.2576-.5796,0-.8372l-.644-.6439a.3322.3322,0,0,0-.5151,0,8.84663,8.84663,0,0,1-7.0934,2.771,8.30267,8.30267,0,0,1-7.0291-3.2882,18.165,18.165,0,0,1-3.2881-9.8c0-6.6406,3.9321-9.9952,7.6086-9.9952,1.5474,0,2.9017.1952,4.3204,2.8374.9659,1.7406,2.0627,2.5798,3.5457,2.5798a2.19714,2.19714,0,0,0,2.3846-2.2578c0-1.3543-2.0646-5.222-8.7676-5.222-8.5122,0-13.7985,7.6086-13.7985,15.1528Z"/><path class="cz-b" d="M39.78222,0,0,39.78219,39.78222,79.5644l39.7822-39.78221Z"/><path class="cz-g" d="M49.77792,33.38429c1.6884,0,3.1735-.06639,4.4573-.06639,1.147-.06841,2.2961-.1368,2.9038-.1368a.47993.47993,0,0,1,.4065.81089c-5.3347,7.32491-10.6009,14.686-15.8672,22.0108h8.981a7.57063,7.57063,0,0,0,2.1613-.20319c1.147-.4729,4.252-4.11721,4.7249-4.725a.31612.31612,0,0,1,.4045-.06639l.5393.2697c.0684.0664.1348.1348.0684.3381-.4729.7425-2.1612,4.9281-2.4993,5.8055a.53973.53973,0,0,1-.4729.37229,6.362,6.362,0,0,1-.809-.10059c-1.8916-.2717-7.2242-.4065-10.3292-.4065h-7.7314c-.338,0-.5071-.10061-.5071-.3039a1.20845,1.20845,0,0,1,.2033-.6439c5.1978-7.2243,10.4319-14.4827,15.5975-21.7412h-7.832a2.86654,2.86654,0,0,0-1.6541.5736,32.80227,32.80227,0,0,0-4.2198,4.76109c-.1349.20121-.2697.20121-.4045.1348l-.4729-.27159c-.1348,0-.1348-.0684-.1348-.2697l2.1612-6.0088a.41424.41424,0,0,1,.4065-.3723,7.05483,7.05483,0,0,1,.7425.06649c1.6199.20321,6.3469.171,9.1823.171Zm-8.1942-9.00709a2.1982,2.1982,0,0,1-2.3846,2.2578c-1.483,0-2.5798-.8392-3.5457-2.5798-1.4187-2.6422-2.773-2.8374-4.3204-2.8374-3.6745,0-7.6086,3.3525-7.6086,9.9952a18.16494,18.16494,0,0,0,3.2881,9.8,8.30266,8.30266,0,0,0,7.0291,3.28821,8.84663,8.84663,0,0,0,7.0934-2.771.3322.3322,0,0,1,.5151,0l.644.6439c.2576.2576.322.4508,0,.8372a14.91255,14.91255,0,0,1-10.3796,4.58c-3.4169,0-7.029-.7767-9.9952-4.5136a13.35743,13.35743,0,0,1-2.9017-8.7677c0-7.5442,5.2863-15.1528,13.7985-15.1528,6.705,0,8.7676,3.8697,8.7676,5.222Z"/></g></g></svg>
